<?xml version="1.0" encoding="UTF-8" standalone="no"?>
<!-- Created with Inkscape (http://www.inkscape.org/) -->

<svg
   xmlns:dc="http://purl.org/dc/elements/1.1/"
   xmlns:cc="http://creativecommons.org/ns#"
   xmlns:rdf="http://www.w3.org/1999/02/22-rdf-syntax-ns#"
   xmlns:svg="http://www.w3.org/2000/svg"
   xmlns="http://www.w3.org/2000/svg"
   xmlns:sodipodi="http://sodipodi.sourceforge.net/DTD/sodipodi-0.dtd"
   xmlns:inkscape="http://www.inkscape.org/namespaces/inkscape"
   width="291"
   height="104"
   viewBox="0 0 76.993748 27.516668"
   version="1.1"
   id="svg4633"
   inkscape:version="0.92.3 (2405546, 2018-03-11)"
   sodipodi:docname="nerdjs.svg"
   inkscape:export-filename="/var/www/project/public/img/nerdjs.png"
   inkscape:export-xdpi="96"
   inkscape:export-ydpi="96">
  <defs
     id="defs4627">
    <filter
       inkscape:collect="always"
       style="color-interpolation-filters:sRGB"
       id="filter3895"
       x="-0.028467372"
       width="1.0569347"
       y="-0.089538649"
       height="1.1790773">
      <feGaussianBlur
         inkscape:collect="always"
         stdDeviation="0.51205252"
         id="feGaussianBlur3897" />
    </filter>
    <filter
       inkscape:collect="always"
       style="color-interpolation-filters:sRGB"
       id="filter3909"
       x="-0.025113344"
       width="1.0502267"
       y="-0.071715572"
       height="1.1434311">
      <feGaussianBlur
         inkscape:collect="always"
         stdDeviation="0.51986558"
         id="feGaussianBlur3911" />
    </filter>
  </defs>
  <sodipodi:namedview
     id="base"
     pagecolor="#ffffff"
     bordercolor="#666666"
     borderopacity="1.0"
     inkscape:pageopacity="0.0"
     inkscape:pageshadow="2"
     inkscape:zoom="2.4753392"
     inkscape:cx="143.97483"
     inkscape:cy="109.36963"
     inkscape:document-units="mm"
     inkscape:current-layer="layer1"
     showgrid="false"
     units="px"
     inkscape:window-width="1920"
     inkscape:window-height="998"
     inkscape:window-x="0"
     inkscape:window-y="48"
     inkscape:window-maximized="1" />
  <metadata
     id="metadata4630">
    <rdf:RDF>
      <cc:Work
         rdf:about="">
        <dc:format>image/svg+xml</dc:format>
        <dc:type
           rdf:resource="http://purl.org/dc/dcmitype/StillImage" />
        <dc:title></dc:title>
      </cc:Work>
    </rdf:RDF>
  </metadata>
  <g
     inkscape:label="Camada 1"
     inkscape:groupmode="layer"
     id="layer1"
     transform="translate(0,-269.48332)">
    <g
       inkscape:export-ydpi="96"
       inkscape:export-xdpi="96"
       style="fill:#1f241c;stroke-width:1.86540401;filter:url(#filter3909)"
       transform="matrix(0.57497192,0,0,0.49981302,-0.3627053,151.85683)"
       id="g3907">
      <path
         inkscape:connector-curvature="0"
         id="path3899"
         style="font-style:normal;font-weight:normal;font-size:medium;line-height:1.25;font-family:sans-serif;letter-spacing:0px;word-spacing:0px;fill:#1f241c;fill-opacity:1;stroke:none;stroke-width:0.48898953"
         d="m 16.473842,259.0947 -11.3276249,4.02833 11.3276249,4.00637 v 1.9977 l -14.0717199,-5.104 v -1.82207 l 14.0717199,-5.10402 z"
         inkscape:export-xdpi="96"
         inkscape:export-ydpi="96" />
      <path
         inkscape:connector-curvature="0"
         id="path3901"
         style="font-style:normal;font-weight:normal;font-size:medium;line-height:1.25;font-family:sans-serif;letter-spacing:0px;word-spacing:0px;fill:#1f241c;fill-opacity:1;stroke:none;stroke-width:0.48898953"
         d="m 26.769685,261.70708 v 7.42002 h -2.019653 v -7.35416 q 0,-1.74526 -0.680537,-2.6124 -0.680535,-0.86711 -2.041607,-0.86711 -1.635479,0 -2.579449,1.04274 -0.943967,1.04275 -0.943967,2.84288 v 6.94805 h -2.03063 v -12.29353 h 2.03063 v 1.90988 q 0.724439,-1.10861 1.701337,-1.65744 0.987874,-0.54882 2.272111,-0.54882 2.118442,0 3.205102,1.31717 1.086663,1.30618 1.086663,3.85272 z"
         inkscape:export-xdpi="96"
         inkscape:export-ydpi="96" />
      <path
         inkscape:connector-curvature="0"
         id="path3903"
         style="font-style:normal;font-weight:normal;font-size:medium;line-height:1.25;font-family:sans-serif;letter-spacing:0px;word-spacing:0px;fill:#1f241c;fill-opacity:1;stroke:none;stroke-width:0.48898953"
         d="m 35.992595,259.04415 v -6.6517 h 2.019656 v 17.07926 h -2.019656 v -1.84403 q -0.636628,1.09763 -1.613528,1.63547 -0.965921,0.52688 -2.326992,0.52688 -2.228205,0 -3.633182,-1.77818 -1.393999,-1.77817 -1.393999,-4.67593 0,-2.89777 1.393999,-4.67593 1.404977,-1.77819 3.633182,-1.77819 1.361071,0 2.326992,0.53786 0.9769,0.52684 1.613528,1.62449 z m -6.88219,4.29177 q 0,2.22821 0.911039,3.50146 0.922017,1.26228 2.524568,1.26228 1.602553,0 2.524567,-1.26228 0.922016,-1.27325 0.922016,-3.50146 0,-2.22821 -0.922016,-3.49049 -0.922014,-1.27326 -2.524567,-1.27326 -1.602551,0 -2.524568,1.27326 -0.911039,1.26228 -0.911039,3.49049 z" />
      <path
         inkscape:connector-curvature="0"
         id="path3905"
         style="font-style:normal;font-weight:normal;font-size:medium;line-height:1.25;font-family:sans-serif;letter-spacing:0px;word-spacing:0px;fill:#1f241c;fill-opacity:1;stroke:none;stroke-width:0.48898953"
         d="m 38.012251,259.43931 v -1.99769 l 14.071721,5.10402 v 1.82207 l -14.071721,5.104 v -1.9977 l 11.305673,-4.00637 z"
         inkscape:export-xdpi="96"
         inkscape:export-ydpi="96" />
    </g>
    <text
       transform="scale(0.99199223,1.0080724)"
       id="text3893"
       y="285.7915"
       x="30.989714"
       style="font-style:normal;font-weight:normal;font-size:14.18213177px;line-height:1.25;font-family:sans-serif;letter-spacing:0px;word-spacing:0px;fill:#112b00;fill-opacity:1;stroke:none;stroke-width:0.26458332;filter:url(#filter3895)"
       xml:space="preserve"><tspan
         style="fill:#112b00;stroke-width:0.26458332"
         y="285.7915"
         x="30.989714"
         id="tspan3891"
         sodipodi:role="line">Nerdjs</tspan></text>
    <text
       xml:space="preserve"
       style="font-style:normal;font-weight:normal;font-size:16.53662682px;line-height:1.25;font-family:sans-serif;letter-spacing:0px;word-spacing:0px;fill:#005522;fill-opacity:1;stroke:none;stroke-width:0.41341567"
       x="-105.95345"
       y="274.24304"
       id="text60"
       transform="scale(0.84368892,1.185271)"><tspan
         sodipodi:role="line"
         id="tspan58"
         x="-105.95345"
         y="274.24304"
         style="fill:#005522;fill-opacity:1;stroke-width:0.41341567">&lt;</tspan></text>
    <text
       transform="scale(-0.84368892,-1.185271)"
       id="text64"
       y="-236.81642"
       x="82.588455"
       style="font-style:normal;font-weight:normal;font-size:16.53662682px;line-height:1.25;font-family:sans-serif;letter-spacing:0px;word-spacing:0px;fill:#005522;fill-opacity:1;stroke:none;stroke-width:0.41341567"
       xml:space="preserve"><tspan
         style="fill:#005522;fill-opacity:1;stroke-width:0.41341567"
         y="-236.81642"
         x="82.588455"
         id="tspan62"
         sodipodi:role="line">&lt;</tspan></text>
    <g
       id="g140"
       transform="matrix(0.57497192,0,0,0.49981302,-0.3627053,151.85683)"
       style="fill:#ccffaa;stroke-width:1.86540401"
       inkscape:export-xdpi="96"
       inkscape:export-ydpi="96">
      <path
         inkscape:export-ydpi="96"
         inkscape:export-xdpi="96"
         d="m 16.473842,259.0947 -11.3276249,4.02833 11.3276249,4.00637 v 1.9977 l -14.0717199,-5.104 v -1.82207 l 14.0717199,-5.10402 z"
         style="font-style:normal;font-weight:normal;font-size:medium;line-height:1.25;font-family:sans-serif;letter-spacing:0px;word-spacing:0px;fill:#ccffaa;fill-opacity:1;stroke:none;stroke-width:0.48898953"
         id="path49"
         inkscape:connector-curvature="0" />
      <path
         inkscape:export-ydpi="96"
         inkscape:export-xdpi="96"
         d="m 26.769685,261.70708 v 7.42002 h -2.019653 v -7.35416 q 0,-1.74526 -0.680537,-2.6124 -0.680535,-0.86711 -2.041607,-0.86711 -1.635479,0 -2.579449,1.04274 -0.943967,1.04275 -0.943967,2.84288 v 6.94805 h -2.03063 v -12.29353 h 2.03063 v 1.90988 q 0.724439,-1.10861 1.701337,-1.65744 0.987874,-0.54882 2.272111,-0.54882 2.118442,0 3.205102,1.31717 1.086663,1.30618 1.086663,3.85272 z"
         style="font-style:normal;font-weight:normal;font-size:medium;line-height:1.25;font-family:sans-serif;letter-spacing:0px;word-spacing:0px;fill:#ccffaa;fill-opacity:1;stroke:none;stroke-width:0.48898953"
         id="path51"
         inkscape:connector-curvature="0" />
      <path
         d="m 35.992595,259.04415 v -6.6517 h 2.019656 v 17.07926 h -2.019656 v -1.84403 q -0.636628,1.09763 -1.613528,1.63547 -0.965921,0.52688 -2.326992,0.52688 -2.228205,0 -3.633182,-1.77818 -1.393999,-1.77817 -1.393999,-4.67593 0,-2.89777 1.393999,-4.67593 1.404977,-1.77819 3.633182,-1.77819 1.361071,0 2.326992,0.53786 0.9769,0.52684 1.613528,1.62449 z m -6.88219,4.29177 q 0,2.22821 0.911039,3.50146 0.922017,1.26228 2.524568,1.26228 1.602553,0 2.524567,-1.26228 0.922016,-1.27325 0.922016,-3.50146 0,-2.22821 -0.922016,-3.49049 -0.922014,-1.27326 -2.524567,-1.27326 -1.602551,0 -2.524568,1.27326 -0.911039,1.26228 -0.911039,3.49049 z"
         style="font-style:normal;font-weight:normal;font-size:medium;line-height:1.25;font-family:sans-serif;letter-spacing:0px;word-spacing:0px;fill:#ccffaa;fill-opacity:1;stroke:none;stroke-width:0.48898953"
         id="path53"
         inkscape:connector-curvature="0" />
      <path
         inkscape:export-ydpi="96"
         inkscape:export-xdpi="96"
         d="m 38.012251,259.43931 v -1.99769 l 14.071721,5.10402 v 1.82207 l -14.071721,5.104 v -1.9977 l 11.305673,-4.00637 z"
         style="font-style:normal;font-weight:normal;font-size:medium;line-height:1.25;font-family:sans-serif;letter-spacing:0px;word-spacing:0px;fill:#ccffaa;fill-opacity:1;stroke:none;stroke-width:0.48898953"
         id="path55"
         inkscape:connector-curvature="0" />
    </g>
    <text
       xml:space="preserve"
       style="font-style:normal;font-weight:normal;font-size:14.18213177px;line-height:1.25;font-family:sans-serif;letter-spacing:0px;word-spacing:0px;fill:#ccffaa;fill-opacity:1;stroke:none;stroke-width:0.26458332"
       x="30.989714"
       y="285.7915"
       id="text144"
       transform="scale(0.99199223,1.0080724)"><tspan
         sodipodi:role="line"
         id="tspan142"
         x="30.989714"
         y="285.7915"
         style="fill:#ccffaa;stroke-width:0.26458332">Nerdjs</tspan></text>
  </g>
</svg>
